HIERARCHY
ROOT Hips
{
	OFFSET 0.000000 0.000000 0.000000 
	CHANNELS 6 Xposition Yposition Zposition Zrotation Yrotation Xrotation
	JOINT LeftUpLeg
	{
		OFFSET 1.363060 -1.794630 0.839290 
		CHANNELS 3 Zrotation Yrotation Xrotation
		JOINT LeftLeg
		{
			OFFSET 2.448110 -6.726130 0.000000 
			CHANNELS 3 Zrotation Yrotation Xrotation
			JOINT LeftFoot
			{
				OFFSET 2.562200 -7.039590 0.000000 
				CHANNELS 3 Zrotation Yrotation Xrotation
				JOINT LeftToeBase
				{
					OFFSET 0.157640 -0.433110 2.322550 
					CHANNELS 3 Zrotation Yrotation Xrotation
					End Site
					{
						OFFSET 0.000000 0.000000 0.000000 
					}
				}
			}
		}
	}
	JOINT RightUpLeg
	{
		OFFSET -1.305520 -1.794630 0.839290 
		CHANNELS 3 Zrotation Yrotation Xrotation
		JOINT RightLeg
		{
			OFFSET -2.542530 -6.985550 0.000000 
			CHANNELS 3 Zrotation Yrotation Xrotation
			JOINT RightFoot
			{
				OFFSET -2.568260 -7.056230 0.000000 
				CHANNELS 3 Zrotation Yrotation Xrotation
				JOINT RightToeBase
				{
					OFFSET -0.164730 -0.452590 2.363150 
					CHANNELS 3 Zrotation Yrotation Xrotation
					End Site
					{
						OFFSET 0.000000 0.000000 0.000000 
					}
				}
			}
		}
	}
	JOINT Spine
	{
		OFFSET 0.028270 2.035590 -0.193380 
		CHANNELS 3 Zrotation Yrotation Xrotation
		JOINT Spine1
		{
			OFFSET 0.056720 2.048850 -0.042750 
			CHANNELS 3 Zrotation Yrotation Xrotation
			JOINT Neck1
			{
				OFFSET -0.054170 1.746240 0.172020 
				CHANNELS 3 Zrotation Yrotation Xrotation
				JOINT Head
				{
					OFFSET 0.104070 1.761360 -0.123970 
					CHANNELS 3 Zrotation Yrotation Xrotation
					End Site
					{
						OFFSET 0.000000 0.000000 0.000000 
					}
				}
			}
			JOINT LeftArm
			{
				OFFSET 3.362410 1.200890 -0.311210 
				CHANNELS 3 Zrotation Yrotation Xrotation
				JOINT LeftForeArm
				{
					OFFSET 4.983000 -0.000000 -0.000000 
					CHANNELS 3 Zrotation Yrotation Xrotation
					JOINT LeftHand
					{
						OFFSET 3.483560 -0.000000 -0.000000 
						CHANNELS 3 Zrotation Yrotation Xrotation
						JOINT LeftHandIndex1
						{
							OFFSET 0.715260 -0.000000 -0.000000 
							CHANNELS 3 Zrotation Yrotation Xrotation
							End Site
							{
								OFFSET 0.000000 0.000000 0.000000 
							}
						}
					}
				}
			}
			JOINT RightArm
			{
				OFFSET -3.136600 1.374050 -0.404650 
				CHANNELS 3 Zrotation Yrotation Xrotation
				JOINT RightForeArm
				{
					OFFSET -5.241900 -0.000000 -0.000000 
					CHANNELS 3 Zrotation Yrotation Xrotation
					JOINT RightHand
					{
						OFFSET -3.444170 -0.000000 -0.000000 
						CHANNELS 3 Zrotation Yrotation Xrotation
						JOINT RightHandIndex1
						{
							OFFSET -0.622530 -0.000000 -0.000000 
							CHANNELS 3 Zrotation Yrotation Xrotation
							End Site
							{
								OFFSET 0.000000 0.000000 0.000000 
							}
						}
					}
				}
			}
		}
	}
}
MOTION
Frames: 6
Frame Time: 0.041667
50.720189 18.037015 -1.227484 177.079292 80.054327 162.145175 -7.379058 7.197145 -8.128701 6.518433 17.116601 52.738174 2.150300 -2.800530 14.026477 0.319900 -3.635900 -10.054500 13.392664 -4.689829 -7.289599 -0.304721 -11.791449 27.236909 3.031413 -13.659321 8.015826 -1.489200 -7.709400 21.834800 0.716197 -0.320598 -2.493568 0.760623 -0.632417 2.284550 7.213707 -2.008192 7.904112 1.144600 -0.441000 11.658400 -81.804861 -8.719968 54.809761 86.530284 -59.011039 -61.685711 -1.876187 1.431496 -4.749665 -7.125000 0.000000 0.000000 61.584681 -40.047023 48.006342 -51.093613 55.433478 -29.744347 1.650431 1.490151 -16.887873 7.125000 0.000000 0.000000 
50.858418 18.100991 -1.241406 174.742853 80.067292 159.979092 -7.723041 7.300606 -8.164831 6.163348 16.930872 51.573766 1.881123 -1.797017 13.328687 0.390400 -4.012300 -11.111300 13.012891 -4.665180 -6.513222 -0.177970 -11.509797 26.471109 3.000698 -13.602430 8.068163 -1.471400 -7.665200 21.701900 0.682164 -0.360774 -2.524566 0.611917 -0.628139 2.236112 7.251579 -1.925247 8.021646 1.146100 -0.370400 11.709000 -82.348404 -7.119751 54.696274 83.432176 -58.845868 -59.037356 -1.885882 1.370676 -4.661664 -7.125000 0.000000 0.000000 62.363833 -38.133600 47.125553 -50.081677 54.983107 -28.820585 1.654182 1.371984 -15.375610 7.125000 0.000000 0.000000 
50.990349 18.165520 -1.263284 174.341573 80.204383 159.697135 -7.743962 7.325893 -8.114797 5.771417 16.669629 50.238232 1.644027 -0.893095 12.794879 0.371800 -3.916700 -10.842400 12.984463 -4.715079 -5.805289 -0.046750 -11.265830 25.749668 2.931245 -13.509008 8.298187 -1.422600 -7.542600 21.333200 0.666993 -0.369385 -2.547763 0.424109 -0.608001 2.210933 7.263989 -1.847772 8.114880 1.158900 -0.316700 11.754700 -82.899596 -5.664584 54.590199 80.261972 -58.584462 -56.318155 -1.892466 1.252419 -4.872914 -7.125000 0.000000 0.000000 63.155957 -36.226753 46.076707 -49.225352 54.576913 -28.031334 1.664410 1.223864 -13.982976 7.125000 0.000000 0.000000 
51.098965 18.233916 -1.270245 178.244069 80.142149 163.601341 -7.094565 6.951727 -8.011410 5.389946 16.329265 48.863917 1.593091 -0.532636 12.350629 0.273200 -3.361900 -9.287900 13.641795 -5.025758 -5.270247 0.091679 -11.093598 25.110661 2.932731 -13.595989 8.269738 -1.455500 -7.625600 21.582600 0.702970 -0.442633 -2.599700 0.270077 -0.626570 1.928665 7.181921 -1.786789 8.193854 1.093600 -0.287700 11.811700 -83.485768 -4.094965 54.514890 77.389662 -58.265947 -53.821052 -1.873921 1.119752 -5.458054 -7.125000 0.000000 0.000000 64.077139 -34.511877 44.687633 -48.655528 54.232740 -27.487295 1.659235 1.090193 -12.333463 7.125000 0.000000 0.000000 
51.211669 18.302423 -1.269251 -179.716424 80.255585 165.840133 -6.622731 6.839873 -8.109449 4.947975 15.941113 47.241721 1.413382 0.220017 12.012456 0.221700 -3.030900 -8.364700 14.063568 -4.978007 -4.769413 0.244562 -10.868463 24.356401 2.983082 -13.767175 8.124192 -1.726800 -8.272200 23.543800 0.717644 -0.367363 -2.654292 0.215669 -0.580546 1.687231 7.161856 -1.756954 8.223765 1.090800 -0.276600 11.790900 -83.984625 -2.462533 54.447164 74.708463 -57.930128 -51.468295 -1.835684 0.988531 -6.623136 -7.125000 0.000000 0.000000 65.117380 -32.913756 43.146288 -48.373747 54.004426 -27.182695 1.651473 0.960822 -10.647753 7.125000 0.000000 0.000000 
51.361279 18.389714 -1.305051 176.975927 81.499497 162.714082 -6.720660 8.010715 -7.985086 4.344676 15.396702 44.926422 0.870678 1.990248 11.662329 0.474800 -4.419200 -12.259100 13.972253 -4.416107 -3.748300 0.421673 -10.553223 23.435189 2.788677 -13.405195 8.656285 -1.876500 -8.604000 24.564200 0.660439 0.213469 -2.637868 -0.000949 -0.278973 1.932955 7.012778 -1.805004 8.334111 0.934300 -0.293200 11.890000 -84.404366 -1.021684 54.340360 71.883160 -57.546705 -49.005638 -1.802974 0.857468 -8.271510 -7.125000 0.000000 0.000000 65.983852 -31.200159 41.852532 -48.205749 53.874340 -26.983480 1.645073 0.835383 -9.239558 7.125000 0.000000 0.000000 
